Coordinates
version=1
nRows=12
nColumns=42
inDegrees=yes

Units are S.I. units (second, meters, Newtons, ...)
If the header above contains a line with 'inDegrees', this indicates whether rotational values are in degrees (yes) or radians (no).

endheader
time	pelvis_tilt	pelvis_list	pelvis_rotation	pelvis_tx	pelvis_ty	pelvis_tz	hip_flexion_r	hip_adduction_r	hip_rotation_r	knee_angle_r	knee_adduction_r	knee_angle_r_beta	ankle_angle_r	subtalar_angle_r	mtp_angle_r	hip_flexion_l	hip_adduction_l	hip_rotation_l	knee_angle_l	knee_adduction_l	knee_angle_l_beta	ankle_angle_l	subtalar_angle_l	mtp_angle_l	lumbar_extension	lumbar_bending	lumbar_rotation	arm_flex_r	arm_add_r	arm_rot_r	elbow_flex_r	pro_sup_r	wrist_flex_r	wrist_dev_r	arm_flex_l	arm_add_l	arm_rot_l	elbow_flex_l	pro_sup_l	wrist_flex_l	wrist_dev_l
      1.80000000	     -1.67028347	     -6.38556180	      2.33248667	      0.73858013	      0.85438913	     -0.36717938	     12.65080644	      6.52210763	      0.87481479	     13.06179500	      7.98216160	      0.22797133	      1.27051848	     -9.06515257	     -7.50605617	      4.34286529	    -13.66753837	      0.74402082	     61.38933243	     12.48290104	      1.07144598	     -4.06491767	    -15.81717793	     -7.50605617	     -3.50700976	      9.87309306	     -5.86401313	     -9.64465984	    -14.60995468	     -1.74910102	     28.56536027	     90.00000001	      0.00000000	      0.00000000	    -12.38403649	     -8.03586709	    -14.34586689	     45.62809412	     90.00000001	      0.00000000	      0.00000000
      1.81000000	     -1.86738317	     -6.32892987	      2.18820658	      0.75020084	      0.85573667	     -0.36659086	     11.64813332	      6.59331830	      1.14423699	     12.38316583	      7.93544944	      0.21612702	      1.73639329	     -8.72174880	     -7.50574801	      6.70254342	    -13.64343962	      0.64500698	     63.87250938	     11.82317789	      1.11478559	     -3.01483720	    -16.00120180	     -7.50574801	     -3.34811209	      9.68757041	     -5.28556685	     -9.27542223	    -14.70559510	     -1.14977159	     28.60757327	     90.00000001	      0.00000000	      0.00000000	    -12.29049997	     -7.84999685	    -14.69350651	     44.45717127	     90.00000001	      0.00000000	      0.00000000
      1.82000000	     -1.76205334	     -6.04850741	      2.10018354	      0.76178204	      0.85737837	     -0.36630331	     10.26658981	      6.35510310	      1.17610149	     11.64793695	      7.94985347	      0.20329485	      2.37553994	     -8.07457294	     -7.50563390	      8.62488169	    -13.25737220	      0.63812944	     65.76337170	     11.22883079	      1.14778736	     -1.62685980	    -16.19561126	     -7.50563390	     -3.55649428	      9.27567760	     -4.73223384	     -8.75437157	    -14.72814150	     -0.90218760	     28.65936401	     90.00000001	      0.00000000	      0.00000000	    -12.17691854	     -7.77145331	    -14.76101512	     43.34597162	     90.00000001	      0.00000000	      0.00000000
      1.83000000	     -1.82927765	     -5.77915664	      2.03446219	      0.77323925	      0.85871368	     -0.36601858	      9.01289475	      6.12631505	      1.20212718	     10.74866370	      7.92512244	      0.18759957	      2.96413322	     -7.30777243	     -7.50550620	     10.77460565	    -12.85037431	      0.59810509	     67.33610063	     10.61123525	      1.17523666	     -0.17665837	    -16.13101755	     -7.50550620	     -3.54797205	      8.85664334	     -4.22950206	     -8.25565743	    -14.77315660	     -0.54096651	     28.74268740	     90.00000001	      0.00000000	      0.00000000	    -12.04087455	     -7.66804883	    -15.04284453	     42.13953874	     90.00000001	      0.00000000	      0.00000000
      1.84000000	     -1.82682745	     -5.46472795	      1.93837603	      0.78421600	      0.85994197	     -0.36572504	      7.81407522	      5.86867166	      1.13173333	     10.06067563	      7.85754283	      0.17559191	      3.45310825	     -6.63331882	     -7.50541221	     12.84485309	    -12.35895533	      0.60699709	     68.54327412	     10.11948293	      1.19630581	      1.26902225	    -16.01456796	     -7.50541221	     -3.71270742	      8.37479322	     -3.72634866	     -7.59396779	    -14.81128385	     -0.24686303	     28.93550712	     90.00000001	      0.00000000	      0.00000000	    -11.89989045	     -7.60219585	    -15.23119846	     41.15773220	     90.00000001	      0.00000000	      0.00000000
      1.85000000	     -2.05616382	     -5.21378110	      1.93161083	      0.79535103	      0.86075156	     -0.36557236	      6.72109834	      5.62822027	      1.09079282	      9.05352328	      7.83391692	      0.15801379	      3.99593197	     -5.76938534	     -7.50511404	     15.15420060	    -11.90240592	      0.62266828	     69.36484038	      9.62929345	      1.21064485	      3.04277388	    -15.30275428	     -7.50511404	     -3.51484500	      7.96601245	     -3.42215033	     -7.02079884	    -15.00417693	      0.73673788	     29.15813969	     90.00000001	      0.00000000	      0.00000000	    -11.72321516	     -7.40361370	    -16.07027951	     39.81974890	     90.00000001	      0.00000000	      0.00000000
      1.86000000	     -2.16044307	     -4.86760067	      1.90304180	      0.80608273	      0.86150394	     -0.36546559	      5.63626433	      5.29394274	      0.93928776	      8.31369540	      7.79072916	      0.14510136	      4.48431065	     -5.10099262	     -7.50502441	     17.27286183	    -11.26430246	      0.68290681	     69.75942047	      9.23960437	      1.21753157	      4.46578271	    -15.19408193	     -7.50502441	     -3.56156270	      7.45615721	     -3.03423065	     -6.30194768	    -15.05703444	      0.95398569	     29.40988638	     90.00000001	      0.00000000	      0.00000000	    -11.60848218	     -7.41701637	    -16.13034948	     38.86196019	     90.00000001	      0.00000000	      0.00000000
      1.87000000	     -2.25216803	     -4.52496155	      1.77167590	      0.81689265	      0.86198586	     -0.36507598	      4.58787202	      5.00887648	      0.64731375	      7.69993595	      7.69600787	      0.13438923	      4.89426506	     -4.53525002	     -7.50495141	     19.28749611	    -10.75178600	      0.69882670	     69.85126195	      9.10818255	      1.21913451	      5.54971391	    -14.86602185	     -7.50495141	     -3.60140613	      6.90674380	     -2.52835533	     -5.63669133	    -15.07985025	      1.17025805	     29.68791338	     90.00000001	      0.00000000	      0.00000000	    -11.57113679	     -7.46112231	    -16.31749758	     38.07621485	     90.00000001	      0.00000000	      0.00000000
      1.88000000	     -2.49709357	     -4.19952180	      1.84844425	      0.82771622	      0.86221712	     -0.36543967	      3.54345262	      4.58826687	      0.68658175	      6.70002350	      7.81039700	      0.11693747	      5.48924255	     -3.62451486	     -7.50485398	     21.36395682	     -9.99907227	      0.92598516	     69.33907528	      8.91563664	      1.21019516	      7.03038408	    -14.51479304	     -7.50485398	     -3.40441842	      6.47531383	     -2.42806811	     -4.84934563	    -15.22767578	      1.55488145	     30.00245847	     90.00000001	      0.00000000	      0.00000000	    -11.43029099	     -7.34122832	    -16.75175668	     36.78932106	     90.00000001	      0.00000000	      0.00000000
      1.89000000	     -2.46316695	     -3.85206096	      1.79888253	      0.83855006	      0.86248575	     -0.36544674	      2.29173632	      4.21972555	      0.55543365	      5.92179704	      7.83130824	      0.10335486	      5.98197078	     -2.77028245	     -7.50465877	     22.97222624	     -9.39718297	      1.17742990	     68.47137184	      9.09638113	      1.19505088	      8.14611034	    -13.85074417	     -7.50465877	     -3.56717553	      5.97581483	     -2.18377309	     -4.04453661	    -15.42369756	      2.33926415	     30.40686519	     90.00000001	      0.00000000	      0.00000000	    -11.26537455	     -7.18666469	    -17.75473622	     35.76222422	     90.00000001	      0.00000000	      0.00000000
      1.90000000	     -2.48545046	     -3.83257026	      1.49083085	      0.84861260	      0.86227830	     -0.36482586	      1.57371718	      4.27796025	      0.12877415	      6.03426620	      7.81723404	      0.10531781	      6.15281234	     -2.59257949	     -7.50461181	     24.73544784	     -9.35622732	      1.04490439	     67.59167746	      9.10389436	      1.17969732	      8.32895143	    -13.36373191	     -7.50461181	     -3.85075473	      5.80812338	     -1.65616911	     -3.07027358	    -15.51918060	      2.37632490	     30.93934073	     90.00000001	      0.00000000	      0.00000000	    -11.40649851	     -7.26524443	    -17.75518044	     35.65604086	     90.00000001	      0.00000000	      0.00000000
      1.91000000	     -2.52790100	     -3.33550023	      1.62831016	      0.86009767	      0.86209492	     -0.36538875	      0.09955495	      3.69833662	      0.34782971	      4.68009526	      7.85353023	      0.08168307	      6.99219755	     -1.46206261	     -7.50440087	     26.05637452	     -8.42957714	      1.37030487	     65.73739510	      9.36303879	      1.14733399	      9.75638633	    -13.63084673	     -7.50440087	     -3.74739571	      5.19108557	     -1.65225760	     -2.38468159	    -15.71606689	      3.20656915	     31.26687145	     90.00000001	      0.00000000	      0.00000000	    -11.16496664	     -7.12063329	    -18.67941151	     34.09082594	     90.00000001	      0.00000000	      0.00000000
